<?xml version="1.0" encoding="UTF-8" standalone="no"?>
<!-- Generator: Adobe Illustrator 16.0.0, SVG Export Plug-In . SVG Version: 6.00 Build 0)  -->

<svg
   version="1.1"
   id="Capa_1"
   x="0px"
   y="0px"
   width="441.331px"
   height="441.332px"
   viewBox="0 0 441.331 441.332"
   style="enable-background:new 0 0 441.331 441.332;"
   xml:space="preserve"
   sodipodi:docname="sword.svg"
   inkscape:version="1.2 (dc2aedaf03, 2022-05-15)"
   xmlns:inkscape="http://www.inkscape.org/namespaces/inkscape"
   xmlns:sodipodi="http://sodipodi.sourceforge.net/DTD/sodipodi-0.dtd"
   xmlns="http://www.w3.org/2000/svg"
   xmlns:svg="http://www.w3.org/2000/svg"><defs
   id="defs436" /><sodipodi:namedview
   id="namedview434"
   pagecolor="#505050"
   bordercolor="#ffffff"
   borderopacity="1"
   inkscape:showpageshadow="0"
   inkscape:pageopacity="0"
   inkscape:pagecheckerboard="1"
   inkscape:deskcolor="#505050"
   showgrid="false"
   inkscape:zoom="2.3270463"
   inkscape:cx="303.38889"
   inkscape:cy="247.09435"
   inkscape:window-width="2560"
   inkscape:window-height="1377"
   inkscape:window-x="-8"
   inkscape:window-y="-8"
   inkscape:window-maximized="1"
   inkscape:current-layer="Capa_1" />
<g
   id="g401"
   transform="matrix(-0.99805428,0,0,1,440.90227,0)">
	<path
   d="m 433.146,393.616 c -6.767,-6.765 -16.137,-9.325 -24.881,-7.7 -7.023,-12.564 -18.734,-27.695 -33.549,-42.502 -12.826,-12.826 -25.886,-23.321 -37.319,-30.473 13.363,-15.257 22.938,-29.971 26.973,-40.97 5.58,2.017 11.053,1.527 14.424,-1.844 5.449,-5.455 3.37,-16.377 -4.641,-24.398 -8.027,-8.028 -18.953,-10.107 -24.403,-4.652 -3.384,3.383 -3.854,8.843 -1.839,14.43 -10.201,3.731 -23.597,12.252 -37.66,24.117 L 53.098,8.783 0,0.046 9.728,52.15 278.93,311.085 c -11.48,13.74 -19.732,26.796 -23.388,36.788 -5.581,-2.019 -11.053,-1.537 -14.424,1.833 -5.461,5.455 -3.376,16.384 4.651,24.4 8.017,8.027 18.943,10.106 24.396,4.651 3.381,-3.376 3.853,-8.849 1.845,-14.431 10.996,-4.026 25.717,-13.608 40.967,-26.966 7.157,11.437 17.646,24.499 30.476,37.319 14.811,14.808 29.935,26.518 42.499,33.554 -1.625,8.745 0.935,18.107 7.699,24.872 10.907,10.904 28.593,10.904 39.502,0 10.906,-10.899 10.906,-28.578 -0.007,-39.489 z M 20.036,54.561 14.26,25.765 29.092,45.5 276.796,293.215 Z"
   id="path399" />
</g>
<g
   id="g403">
</g>
<g
   id="g405">
</g>
<g
   id="g407">
</g>
<g
   id="g409">
</g>
<g
   id="g411">
</g>
<g
   id="g413">
</g>
<g
   id="g415">
</g>
<g
   id="g417">
</g>
<g
   id="g419">
</g>
<g
   id="g421">
</g>
<g
   id="g423">
</g>
<g
   id="g425">
</g>
<g
   id="g427">
</g>
<g
   id="g429">
</g>
<g
   id="g431">
</g>
</svg>
