<?xml version="1.0" encoding="UTF-8" standalone="no"?>
<!-- Generator: Adobe Illustrator 16.0.0, SVG Export Plug-In . SVG Version: 6.00 Build 0)  -->

<svg
   version="1.1"
   id="Capa_1"
   x="0px"
   y="0px"
   width="441.332"
   height="441.23596"
   viewBox="0 0 441.332 441.23581"
   xml:space="preserve"
   sodipodi:docname="broken-sword.svg"
   inkscape:version="1.2 (dc2aedaf03, 2022-05-15)"
   xmlns:inkscape="http://www.inkscape.org/namespaces/inkscape"
   xmlns:sodipodi="http://sodipodi.sourceforge.net/DTD/sodipodi-0.dtd"
   xmlns="http://www.w3.org/2000/svg"
   xmlns:svg="http://www.w3.org/2000/svg"><defs
   id="defs397" /><sodipodi:namedview
   id="namedview395"
   pagecolor="#505050"
   bordercolor="#ffffff"
   borderopacity="1"
   inkscape:showpageshadow="0"
   inkscape:pageopacity="0"
   inkscape:pagecheckerboard="1"
   inkscape:deskcolor="#505050"
   showgrid="false"
   inkscape:zoom="2.0201901"
   inkscape:cx="218.04879"
   inkscape:cy="237.60141"
   inkscape:window-width="2560"
   inkscape:window-height="1377"
   inkscape:window-x="-8"
   inkscape:window-y="-8"
   inkscape:window-maximized="1"
   inkscape:current-layer="Capa_1" />
<g
   id="g362"
   transform="matrix(13.220347,0,0,13.220347,-315.40478,130.80397)">
	<g
   id="g360">












	</g>
</g>
<g
   id="g364"
   transform="translate(-102.83398,350.30664)">
</g>
<g
   id="g366"
   transform="translate(-102.83398,350.30664)">
</g>
<g
   id="g368"
   transform="translate(-102.83398,350.30664)">
</g>
<g
   id="g370"
   transform="translate(-102.83398,350.30664)">
</g>
<g
   id="g372"
   transform="translate(-102.83398,350.30664)">
</g>
<g
   id="g374"
   transform="translate(-102.83398,350.30664)">
</g>
<g
   id="g376"
   transform="translate(-102.83398,350.30664)">
</g>
<g
   id="g378"
   transform="translate(-102.83398,350.30664)">
</g>
<g
   id="g380"
   transform="translate(-102.83398,350.30664)">
</g>
<g
   id="g382"
   transform="translate(-102.83398,350.30664)">
</g>
<g
   id="g384"
   transform="translate(-102.83398,350.30664)">
</g>
<g
   id="g386"
   transform="translate(-102.83398,350.30664)">
</g>
<g
   id="g388"
   transform="translate(-102.83398,350.30664)">
</g>
<g
   id="g390"
   transform="translate(-102.83398,350.30664)">
</g>
<g
   id="g392"
   transform="translate(-102.83398,350.30664)">
</g>
<path
   style="stroke-width:0.845277"
   d="m 335.52974,211.79578 c 1.64094,-2.07553 4.07578,-3.17281 6.55027,-3.17293 1.77321,6e-5 3.55962,0.54207 5.06825,1.74503 l 72.88701,56.51698 c 3.59938,2.81588 4.261,7.99831 1.45562,11.59425 -2.79215,3.60918 -7.9927,4.29664 -11.6185,1.45423 l -72.87377,-56.5037 c -3.62586,-2.81588 -4.27427,-8.0247 -1.46888,-11.63386 z"
   id="path815" /><path
   style="stroke-width:0.845277"
   d="m 282.21423,231.54698 c 0.74104,-3.96609 4.20811,-6.74236 8.12504,-6.74238 0.50284,1.5e-4 1.00569,0.0529 1.52174,0.13222 4.49919,0.85933 7.45012,5.19562 6.60328,9.66405 l -15.13848,80.65735 c -0.86013,4.52136 -5.17413,7.44303 -9.67328,6.6234 -4.48597,-0.81966 -7.45015,-5.18235 -6.58999,-9.63763 z"
   id="path813" /><path
   style="stroke-width:0.845277"
   d="m 341.02141,170.11203 c -1.37622,-4.34949 1.00571,-9.00305 5.35933,-10.3912 l 78.29925,-24.86747 c 0.84692,-0.27765 1.69382,-0.38317 2.51431,-0.3834 3.51995,3e-5 6.77525,2.26068 7.88684,5.77726 1.37627,4.33625 -1.01893,9.00304 -5.37261,10.37794 l -78.29926,24.89392 c -4.32716,1.33528 -9.02485,-1.0444 -10.38788,-5.40705 z"
   id="path811" /><path
   style="stroke-width:0.845277"
   d="m 316.48754,226.32495 c 0.51596,-0.0793 1.00571,-0.13221 1.4953,-0.1322 3.94342,3e-5 7.42367,2.80274 8.13827,6.8217 l 9.6468,53.06646 c 0.82043,4.50813 -2.15698,8.80475 -6.65617,9.62442 -4.47271,0.70067 -8.82635,-2.15492 -9.62033,-6.66309 l -9.66004,-53.09289 c -0.80722,-4.48168 2.17021,-8.79151 6.65614,-9.6244 z"
   id="path809" /><path
   style="stroke-width:0.845277"
   d="m 407.82125,182.44661 c 0.17203,-0.0259 0.33082,-0.0265 0.52932,-0.0265 4.34038,-5e-5 7.97947,3.38438 8.25733,7.73389 0.29113,4.58747 -3.16265,8.54035 -7.72801,8.79153 l -53.89778,3.46373 c -4.63149,0.31727 -8.4955,-3.14645 -8.78664,-7.73391 -0.27789,-4.57425 3.16267,-8.48747 7.72803,-8.79156 z"
   id="path807" /><path
   style="stroke-width:0.845277"
   d="m 177.96092,153.74035 c -2.80536,3.58273 -7.99267,4.24374 -11.61849,1.4278 L 93.481877,98.65117 C 89.8693,95.84843 89.207611,90.66611 92.01303,87.04371 c 1.640901,-2.10198 4.088949,-3.19936 6.550271,-3.19935 1.773239,6e-5 3.559679,0.5685 5.068249,1.7583 l 72.87376,56.51698 c 3.61255,2.80275 4.28746,7.99834 1.45561,11.62068 z"
   id="path805" /><path
   style="stroke-width:0.845277"
   d="m 231.28967,133.98916 c -0.83367,4.49492 -5.06822,7.42984 -9.66005,6.59695 -4.4992,-0.81965 -7.46338,-5.18234 -6.60328,-9.65084 l 15.15175,-80.67056 c 0.72782,-3.97932 4.20812,-6.75558 8.11179,-6.7556 0.50286,1.5e-4 1.01894,0.0396 1.54824,0.14552 4.49919,0.83288 7.45016,5.18235 6.61643,9.63765 z"
   id="path803" /><path
   style="stroke-width:0.845277"
   d="m 164.59568,189.66004 c 3.50671,-1e-5 6.77526,2.23424 7.90003,5.7641 1.38943,4.3363 -1.03217,9.01629 -5.38577,10.39121 l -78.299317,24.88068 c -4.340419,1.34841 -9.011622,-1.01796 -10.414327,-5.38066 -1.389462,-4.33626 1.032172,-8.98982 5.399046,-10.37795 l 78.299298,-24.86748 c 0.83367,-0.27767 1.68051,-0.40978 2.501,-0.40983 z"
   id="path801" /><path
   style="stroke-width:0.845277"
   d="m 196.9899,139.19798 c -4.47273,0.74034 -8.82636,-2.15492 -9.63359,-6.64982 l -9.67326,-53.07972 c -0.82044,-4.53457 2.17019,-8.80473 6.66943,-9.63761 0.50286,-0.0926 0.99262,-0.14551 1.48211,-0.14547 3.93019,-1e-5 7.41043,2.80275 8.13826,6.78203 l 9.67329,53.09291 c 0.83367,4.52136 -2.13052,8.81799 -6.65616,9.63765 z"
   id="path799" /><path
   style="stroke-width:0.845277"
   d="m 105.66942,183.10276 c -4.45952,0.50237 -8.508793,-3.17289 -8.7999,-7.73391 -0.277895,-4.58746 3.1759,-8.51391 7.74125,-8.79154 l 53.89776,-3.45051 c 0.18526,-0.0137 0.3573,-0.013 0.54266,-0.0136 4.34039,5e-5 7.99267,3.37123 8.27058,7.76034 0.29114,4.57425 -3.1759,8.48746 -7.74125,8.76509 z"
   id="path797" /><path
   style="stroke-width:0.845277"
   d="m 200.20365,206.75391 51.78755,-1.01382 -87.50903,87.42968 94.29477,-87.5625 13.56368,-0.26562 -109.9933,105.69726 c 11.49093,13.73999 19.74952,26.79512 23.40899,36.78711 5.5863,-2.019 11.06336,-1.53601 14.43756,1.83399 5.46619,5.45499 3.37982,16.38439 -4.65482,24.40039 -8.02462,8.02699 -18.96152,10.10538 -24.41972,4.65039 -3.38421,-3.376 -3.8554,-8.84965 -1.84549,-14.43164 -11.00647,-4.026 -25.74326,-13.60686 -41.00776,-26.96485 -7.16382,11.43699 -17.66142,24.49837 -30.503641,37.31836 -14.825083,14.80799 -29.964505,26.5187 -42.540468,33.55469 1.626557,8.74499 -0.936111,18.1061 -7.706542,24.87109 -10.917375,10.90399 -28.620186,10.90399 -39.5395632,0 -10.9163847,-10.89899 -10.915574,-28.57729 0.00801,-39.48828 6.7734232,-6.76499 16.1522252,-9.32617 24.9045412,-7.70117 C 39.917912,373.305 51.639903,358.17402 66.469,343.36704 79.307203,330.54105 92.379018,320.04637 103.8229,312.89438 90.44719,297.6374 80.863393,282.92462 76.824561,271.92563 c -5.585313,2.017 -11.063364,1.52529 -14.437574,-1.8457 -5.454179,-5.455 -3.37357,-16.3755 4.645048,-24.39649 8.034644,-8.02799 18.972359,-10.10734 24.427538,-4.65234 3.387222,3.38299 3.856559,8.8427 1.83964,14.42968 10.210707,3.731 23.619637,12.25221 37.696007,24.11719 z"
   id="path795" /><path
   style="stroke-width:0.845277"
   d="m 439.87587,33.914454 -18.26928,49.75775 -142.825,97.369836 -12.1928,-1.81128 L 411.03071,84.33429 421.5232,56.900578 403.60117,73.890424 257.30698,177.85115 204.37045,169.98233 386.01494,33.687778 Z"
   id="rect517" /><g
   id="g401"
   transform="translate(5.6e-4,-0.04599)">

</g></svg>
