<?xml version="1.0" encoding="UTF-8" standalone="no"?>
<svg
   width="512px"
   height="512px"
   viewBox="0 0 512 512"
   version="1.1"
   id="svg12"
   sodipodi:docname="shield.svg"
   inkscape:version="1.2 (dc2aedaf03, 2022-05-15)"
   xmlns:inkscape="http://www.inkscape.org/namespaces/inkscape"
   xmlns:sodipodi="http://sodipodi.sourceforge.net/DTD/sodipodi-0.dtd"
   xmlns="http://www.w3.org/2000/svg"
   xmlns:svg="http://www.w3.org/2000/svg">
  <defs
     id="defs16" />
  <sodipodi:namedview
     id="namedview14"
     pagecolor="#505050"
     bordercolor="#ffffff"
     borderopacity="1"
     inkscape:showpageshadow="0"
     inkscape:pageopacity="0"
     inkscape:pagecheckerboard="1"
     inkscape:deskcolor="#505050"
     showgrid="false"
     inkscape:zoom="2.0058594"
     inkscape:cx="442.70302"
     inkscape:cy="250.2668"
     inkscape:window-width="2560"
     inkscape:window-height="1377"
     inkscape:window-x="-8"
     inkscape:window-y="-8"
     inkscape:window-maximized="1"
     inkscape:current-layer="svg12" />
  <path
     id="path285"
     d="m 45.90625,23.625 v 9.34375 c 0,102.6795 10.490155,205.0867 41.125,288.1543 30.63685,83.06755 82.3644,147.41635 163.75,169.78125 l 2.2207,0.625 2.21875,-0.5 c 89.26855,-19.0299 141.6442,-83.639 170.37305,-167.5586 28.72785,-83.91955 35.25,-187.7775 35.25,-290.499997 V 23.625 Z m 18.810547,18.6875 h 0.0039 377.339843 c -0.413,98.7995 -7.49715,197.3424 -34.125,275.125 -27.2099,79.4866 -73.3904,136.63835 -154.375,154.78125 -73.27965,-21.0299 -119.91415,-78.6969 -149,-157.5625 C 76.085697,237.44465 65.353792,140.526 64.716797,42.3125 Z m 18.8125,18.75 c 0.806995,84.1296 12.486588,172.82385 39.314453,244.8125 7.82495,20.9979 16.87405,40.4946 39.46045,75.17095 22.5864,34.67635 53.80495,60.5946 92.57275,71.89155 30.33985,-6.90995 55.3594,-21.4966 82.8518,-52.80138 27.4924,-31.30477 41.41555,-59.70457 52.3025,-91.79042 2.578,-7.59495 4.96741,-15.38975 13.63736,-50.22183 8.66995,-34.83208 14.45485,-81.66252 16.7225,-123.29253 2.26764,-41.63001 2.62994,-57.79092 2.73194,-73.76884 H 246.58398 Z"
     sodipodi:nodetypes="cscccccscccccccccccccccccccc" />
</svg>
